# xmcd CD database file
#
# Track frame offsets:
#	187
#	15995
#	29830
#
# Disc length: 619 seconds
#
# Revision: 0
# Processed by: cddbd v1.5.1PL0 Copyright (c) Steve Scherf et al.
# Submitted via: CDex 1.51
#
DISCID=1b026903
DTITLE=渡辺マリ_浜村美智子 - 東京ドドンパ娘
DYEAR=1960
DGENRE=Pop
TTITLE0=東京ドドンパ娘（渡辺）
TTITLE1=バナナ・ボート（浜村）
TTITLE2=東京ドドンパ娘（カラオケ）
EXTD=YEAR: 1960
EXTT0=
EXTT1=
EXTT2=
PLAYORDER=
